<?xml version="1.0" encoding="UTF-8"?>
<svg id="Layer_2" data-name="Layer 2" xmlns="http://www.w3.org/2000/svg" viewBox="0 0 90.78 115.17">
  <defs>
    <style>
      .cls-1 {
        fill: #606060;
        isolation: isolate;
      }
    </style>
  </defs>
  <g id="Layer_1-2" data-name="Layer 1">
    <path class="cls-1" d="M49.45,115.17c3.83-.97,7.56-2.27,11.16-3.98,11.8-5.47,20.92-15.05,25.65-27.18,2.83-6.82,3.93-13.93,4.52-21.37v-7.89c-.48-7.36-1.75-14.62-4.51-21.59-4.99-12.62-14.57-22.41-27.01-27.82-6.94-3.01-14.2-4.61-21.8-5.34H0l42.48,115.16M65.52,69.69c-2.41,9.51-8.82,17.04-17.82,20.87-4.08,1.74-8.57,3.1-12.98,3.56L8.41,22.79l22.29.41c5.67.01,11.07,1.06,16.25,3.14,9.33,3.74,15.99,11.4,18.51,21.14,1.89,7.3,1.91,14.9.06,22.21Z"/>
  </g>
</svg>